<svg width="19" height="19" xmlns="http://www.w3.org/2000/svg" xmlns:xlink="http://www.w3.org/1999/xlink" xml:space="preserve" overflow="hidden"><defs><clipPath id="clip0"><rect x="327" y="64" width="19" height="19"/></clipPath><linearGradient x1="3.19708" y1="6.42334" x2="-7.61146" y2="6.42334" gradientUnits="userSpaceOnUse" spreadMethod="pad" id="fill1"><stop offset="0" stop-color="#1D6B40"/><stop offset="1" stop-color="#217748"/></linearGradient></defs><g clip-path="url(#clip0)" transform="translate(-327 -64)"><path d="M0 45.3865 10.8086 45.3865 10.8086 59.0414 0 59.0414Z" fill="#FFFFFF" transform="matrix(1 0 0 1.05922 334.695 18.2166)"/><path d="M0.767102 44.6133C0.342283 44.6133 0 44.9539 0 45.378L0 58.2771C0 58.7003 0.342283 59.0418 0.767102 59.0418L11.7177 59.0418C12.1425 59.0418 12.4848 58.7003 12.4848 58.2771L12.4848 45.378C12.4848 44.9539 12.1425 44.6133 11.7177 44.6133ZM0.613358 45.2469 11.865 45.2469 11.865 58.4009 0.613358 58.4009Z" fill="#1F7144" transform="matrix(1 0 0 1.05922 333.515 18.6017)"/><path d="M0 57.4055 3.02973 57.4055 3.02973 59.0414 0 59.0414Z" fill="#1F7144" transform="matrix(1 0 0 1.05922 340.999 7.06287)"/><path d="M0 57.4055 3.02973 57.4055 3.02973 59.0414 0 59.0414Z" fill="#1F7144" transform="matrix(1 0 0 1.05922 337.326 7.06287)"/><path d="M0 57.4055 3.02973 57.4055 3.02973 59.0414 0 59.0414Z" fill="#1F7144" transform="matrix(1 0 0 1.05922 340.999 9.42924)"/><path d="M0 57.4055 3.02973 57.4055 3.02973 59.0414 0 59.0414Z" fill="#1F7144" transform="matrix(1 0 0 1.05922 337.326 9.42136)"/><path d="M0 57.4055 3.02973 57.4055 3.02973 59.0414 0 59.0414Z" fill="#1F7144" transform="matrix(1 0 0 1.05922 340.999 11.828)"/><path d="M0 57.4055 3.02973 57.4055 3.02973 59.0414 0 59.0414Z" fill="#1F7144" transform="matrix(1 0 0 1.05922 337.326 11.828)"/><path d="M0 57.4055 3.02973 57.4055 3.02973 59.0414 0 59.0414Z" fill="#1F7144" transform="matrix(1 0 0 1.05922 340.999 14.2543)"/><path d="M0 57.4055 3.02973 57.4055 3.02973 59.0414 0 59.0414Z" fill="#1F7144" transform="matrix(1 0 0 1.05922 337.326 14.2386)"/><path d="M0 57.4055 3.02973 57.4055 3.02973 59.0414 0 59.0414Z" fill="#1F7144" transform="matrix(1 0 0 1.05922 340.999 16.6393)"/><path d="M0 57.4055 3.02973 57.4055 3.02973 59.0414 0 59.0414Z" fill="#1F7144" transform="matrix(1 0 0 1.05922 337.326 16.6393)"/><path d="M3.19742 15.3914 3.19742-2.54509-7.61166-0.751834-7.61166 13.5974Z" fill="url(#fill1)" transform="matrix(1 0 0 1.05922 334.612 66.6964)"/><path d="M1.40959 52.7682 2.15808 54.7135C2.21205 54.8284 2.23633 54.9517 2.24871 55.0347 2.24304 54.938 2.26336 54.8624 2.3183 54.7135L3.20516 52.6614 4.56782 52.5805C4.01603 53.6314 3.48537 54.6932 2.97616 55.7654L4.63579 59.0418 3.16713 58.9544 2.2746 56.8165C2.20477 56.6552 2.21828 56.6333 2.2042 56.5543 2.19773 56.6106 2.19546 56.6567 2.15808 56.7582L1.25989 58.8411 0 58.7658 1.45652 55.8091 0.145652 52.8434Z" fill="#FFFFFF" transform="matrix(1 0 0 1.05922 329.82 14.4319)"/></g></svg>